<?xml version="1.0"?>
<svg xmlns="http://www.w3.org/2000/svg" height="512px" viewBox="0 -24 512.00103 512" width="512px" class=""><g><path d="m423.5 62.597656h-335l-50.894531 39.792969c-23.734375 18.554687-37.605469 47.003906-37.605469 77.132813v208.460937c0 42.371094 34.347656 76.71875 76.71875 76.71875h358.5625c42.371094 0 76.71875-34.347656 76.71875-76.71875v-208.460937c0-30.128907-13.871094-58.578126-37.605469-77.132813zm0 0" fill="#91d4f2" data-original="#91D4F2" class="" style="fill:#AED2F6" data-old_color="#91d4f2"/><path d="m256 62.597656h-167.5l-50.894531 39.792969c-23.734375 18.554687-37.605469 47.003906-37.605469 77.132813v208.460937c0 42.371094 34.347656 76.71875 76.71875 76.71875h179.28125zm0 0" fill="#59c2e8" data-original="#59C2E8" class="" data-old_color="#59c2e8" style="fill:#2F819E"/><path d="m162.101562 126.945312.015626-64.347656h-73.617188l-50.894531 39.792969c-23.734375 18.554687-37.605469 47.003906-37.605469 77.132813v208.460937c0 42.371094 34.347656 76.71875 76.71875 76.71875h46.191406c-43.179687-48.476563-33.691406-152.960937-33.691406-232.351563 0-97.757812 72.882812-105.40625 72.882812-105.40625zm0 0" fill="#00aede" data-original="#00AEDE" class=""/><path d="m148.367188 5.023438s45.816406 16.253906 107.632812 16.253906 107.632812-16.253906 107.632812-16.253906v70.859374h-215.265624zm0 0" fill="#91d4f2" data-original="#91D4F2" class="" style="fill:#AED2F6" data-old_color="#91d4f2"/><path d="m148.367188 5.023438 107.632812 70.691406-31.621094 48.871094c-10.292968 15.902343-31.324218 20.816406-47.597656 11.113281l-85.898438-51.21875c-15.425781-9.195313-18.988281-29.996094-7.5-43.800781l24.679688-29.65625c9.953125-11.960938 27.296875-14.542969 40.304688-6zm0 0" fill="#c2eafb" data-original="#C2EAFB" class="" data-old_color="#c2eafb" style="fill:#276884"/><path d="m363.632812 5.023438-107.632812 70.691406 31.621094 48.871094c10.292968 15.902343 31.324218 20.816406 47.597656 11.113281l85.898438-51.21875c15.425781-9.195313 18.988281-29.996094 7.5-43.800781l-24.679688-29.65625c-9.953125-11.960938-27.296875-14.542969-40.304688-6zm0 0" fill="#c2eafb" data-original="#C2EAFB" class="" data-old_color="#c2eafb" style="fill:#276884"/><g fill="#6a829a"><path d="m216.5625 215.089844c0 11.378906-9.222656 20.605468-20.601562 20.605468-11.378907 0-20.605469-9.226562-20.605469-20.605468s9.226562-20.601563 20.605469-20.601563c11.378906 0 20.601562 9.222657 20.601562 20.601563zm0 0" data-original="#6A829A" class="active-path" style="fill:#FFFFFF" data-old_color="#6A829A"/><path d="m216.5625 306.929688c0 11.378906-9.222656 20.605468-20.601562 20.605468-11.378907 0-20.605469-9.226562-20.605469-20.605468 0-11.378907 9.226562-20.605469 20.605469-20.605469 11.378906 0 20.601562 9.226562 20.601562 20.605469zm0 0" data-original="#6A829A" class="active-path" style="fill:#FFFFFF" data-old_color="#6A829A"/><path d="m216.5625 398.769531c0 11.378907-9.222656 20.605469-20.601562 20.605469-11.378907 0-20.605469-9.226562-20.605469-20.605469 0-11.378906 9.226562-20.601562 20.605469-20.601562 11.378906 0 20.601562 9.222656 20.601562 20.601562zm0 0" data-original="#6A829A" class="active-path" style="fill:#FFFFFF" data-old_color="#6A829A"/></g><path d="m384.75 306.929688c-32.832031 0-59.449219-26.613282-59.449219-59.445313v-34.132813c0-13.980468 11.335938-25.3125 25.316407-25.3125h68.261718c13.980469 0 25.316406 11.332032 25.316406 25.3125v34.132813c0 32.832031-26.617187 59.445313-59.445312 59.445313zm0 0" fill="#59c2e8" data-original="#59C2E8" class="" data-old_color="#59c2e8" style="fill:#2F819E"/></g> </svg>
